<svg width="512" height="512" viewBox="0 0 512 512" fill="none" xmlns="http://www.w3.org/2000/svg">
<path fill-rule="evenodd" clip-rule="evenodd" d="M256 480C344.366 480 416 408.366 416 320C416 231.634 256 32 256 32C256 32 96 231.634 96 320C96 408.366 167.634 480 256 480Z" fill="#001666"/>
<path d="M256.5 203.84C209.466 203.84 171.205 242.104 171.205 289.135C171.205 318.02 202.407 368.14 227.479 408.41C239.556 427.804 249.979 444.554 253.639 453.868L256.5 461.16L259.361 453.868C263.018 444.554 273.444 427.81 285.514 408.423C310.589 368.152 341.795 318.03 341.795 289.135C341.795 242.104 303.531 203.84 256.5 203.84ZM280.297 405.175C270.368 421.123 261.54 435.298 256.5 445.341C251.46 435.298 242.629 421.111 232.697 405.165C209.34 367.648 177.351 316.266 177.351 289.135C177.351 245.493 212.858 209.986 256.5 209.986C300.141 209.986 335.649 245.493 335.649 289.135C335.649 316.272 303.657 367.657 280.297 405.175Z" fill="#FBFAF8"/>
<path d="M256.5 242.685C233.14 242.685 214.14 261.688 214.14 285.045C214.14 308.402 233.14 327.408 256.5 327.408C279.86 327.408 298.863 308.405 298.863 285.048C298.863 261.691 279.86 242.685 256.5 242.685ZM256.5 321.262C236.532 321.262 220.286 305.016 220.286 285.048C220.286 265.077 236.532 248.834 256.5 248.834C276.471 248.834 292.717 265.077 292.717 285.048C292.717 305.016 276.471 321.262 256.5 321.262Z" fill="#FBFAF8"/>
</svg>
